<?xml version="1.0" encoding="utf-8"?>
<!DOCTYPE svg PUBLIC "-//W3C//DTD SVG 1.1//EN" "http://www.w3.org/Graphics/SVG/1.1/DTD/svg11.dtd">
<svg version="1.1" id="Calque_1" xmlns="http://www.w3.org/2000/svg" xmlns:xlink="http://www.w3.org/1999/xlink" x="0px" y="0px"
	 width="907.455px" height="334.483px" viewBox="0 0 907.455 334.483" enable-background="new 0 0 907.455 334.483"
	 xml:space="preserve">
<g>
	<path fill="#FFFFFF" d="M831.004,216.069c5.624-6.177,12.533-9.265,20.729-9.265c8.19,0,15.225,3.088,21.092,9.265
		c5.872,6.176,8.804,13.938,8.804,23.295c0,9.357-2.996,16.967-8.988,22.839c-5.992,5.868-13.021,8.804-21.092,8.804
		s-14.92-2.964-20.544-8.896c-5.627-5.933-8.439-13.542-8.439-22.839C822.564,229.979,825.377,222.245,831.004,216.069z
		 M822.934,207.357v-17.059h-20.548v133.166h20.548v-50.259c9.781,10.762,20.815,16.141,33.108,16.141
		c12.288,0,23.046-4.705,32.283-14.122c9.232-9.417,13.851-21.646,13.851-36.686s-4.65-27.084-13.943-36.136
		c-9.297-9.049-20.483-13.574-33.568-13.574C841.578,188.829,831.004,195.004,822.934,207.357z M755.066,266.42
		c-4.895,3.669-10.61,5.504-17.15,5.504c-6.545,0-11.648-1.254-15.316-3.762c-3.67-2.508-5.504-6.145-5.504-10.915
		c0-9.292,7.398-13.938,22.193-13.938H762.4v8.251C762.4,257.796,759.953,262.751,755.066,266.42z M782.948,224.964
		c0-12.473-3.642-21.612-10.915-27.425c-7.277-5.803-16.667-8.711-28.158-8.711c-15.039,0-28.494,4.71-40.354,14.122l9.172,12.842
		c9.781-6.605,19.198-9.905,28.246-9.905c14.427,0,21.645,6.484,21.645,19.446v3.664h-26.595c-12.108,0-21.71,2.388-28.799,7.158
		c-7.094,4.767-10.638,11.952-10.638,21.553c0,9.602,3.327,17.271,9.997,23.019c6.66,5.748,15.067,8.619,25.218,8.619
		c13.574,0,24.396-4.825,32.467-14.491v13.026h18.714V224.964z M555.495,214.418c5.255-4.706,11.431-7.062,18.524-7.062
		s12.293,2.171,15.594,6.509c3.3,4.342,4.95,11.163,4.95,20.455v53.561h20.548v-54.297c0.24-8.556,2.964-15.068,8.163-19.535
		c5.194-4.461,11.278-6.692,18.248-6.692c14.92,0,22.378,8.988,22.378,26.964v53.561h20.543v-59.801
		c0-12.713-3.393-22.438-10.177-29.163c-6.79-6.725-15.686-10.089-26.692-10.089c-14.427,0-26.476,6.36-36.132,19.077
		c-5.503-12.717-15.962-19.077-31.366-19.077c-6.854,0-13.242,1.714-19.17,5.134c-5.932,3.425-10.366,8.136-13.297,14.128v-17.792
		h-20.549v97.583h20.549v-52.827C547.609,226.006,550.236,219.125,555.495,214.418z M506.521,151.777h-20.548v136.104h20.548
		V151.777z M438.653,266.42c-4.893,3.669-10.611,5.504-17.151,5.504c-6.543,0-11.647-1.254-15.316-3.762
		c-3.667-2.508-5.501-6.145-5.501-10.915c0-9.292,7.396-13.938,22.194-13.938h23.113v8.251
		C445.991,257.796,443.543,262.751,438.653,266.42z M466.532,224.964c0-12.473-3.637-21.612-10.915-27.425
		c-7.273-5.803-16.66-8.711-28.153-8.711c-15.042,0-28.494,4.71-40.354,14.122l9.17,12.842c9.783-6.605,19.197-9.905,28.25-9.905
		c14.427,0,21.643,6.484,21.643,19.446v3.664h-26.596c-12.108,0-21.709,2.388-28.798,7.158c-7.094,4.767-10.64,11.952-10.64,21.553
		c0,9.602,3.33,17.271,9.997,23.019c6.663,5.748,15.07,8.619,25.222,8.619c13.574,0,24.397-4.825,32.468-14.491v13.026h18.707
		V224.964z M373.354,239.087c0-14.059-4.893-25.955-14.676-35.676s-22.012-14.583-36.685-14.583s-26.904,4.862-36.685,14.583
		c-9.786,9.721-14.676,21.617-14.676,35.676c0,14.062,4.89,25.954,14.676,35.681c9.781,9.721,22.012,14.578,36.685,14.578
		s26.902-4.857,36.685-14.578C368.461,265.042,373.354,253.15,373.354,239.087z M291.178,239.087c0-9.412,2.901-17.087,8.711-23.019
		c5.808-5.932,13.176-8.896,22.104-8.896c8.926,0,16.293,2.965,22.104,8.896c5.805,5.932,8.711,13.606,8.711,23.019
		c0,9.421-2.906,17.091-8.711,23.023c-5.81,5.932-13.178,8.896-22.104,8.896c-8.928,0-16.296-2.964-22.104-8.896
		C294.079,256.178,291.178,248.508,291.178,239.087z M187.814,214.327c4.953-5.992,11.586-8.988,19.903-8.988
		c8.315,0,15.1,2.904,20.359,8.711c5.257,5.812,7.889,12.902,7.889,21.277c0,8.379-2.6,15.381-7.796,21.004
		c-5.199,5.628-11.986,8.439-20.359,8.439c-8.379,0-15.042-2.904-19.995-8.716c-4.952-5.804-7.428-12.717-7.428-20.728
		C180.387,227.32,182.862,220.319,187.814,214.327z M235.965,190.298v14.487c-8.071-10.639-18.559-15.957-31.458-15.957
		c-12.904,0-23.512,4.525-31.825,13.574c-8.317,9.052-12.475,20.299-12.475,33.753c0,13.45,4.157,24.701,12.475,33.749
		c8.312,9.053,18.953,13.574,31.917,13.574c7.089,0,13.482-1.71,19.167-5.135s10.057-8.011,13.116-13.759v12.473
		c0,11.007-2.844,19.014-8.529,24.028s-13.39,7.522-23.113,7.522c-9.721,0-19.352-3.609-28.889-10.823l-9.723,15.594
		c11.86,9.168,25.129,13.754,39.805,13.754c14.674,0,26.688-4.31,36.042-12.929c9.357-8.624,14.033-21.553,14.033-38.796v-85.11
		H235.965z"/>
</g>
<polygon fill="#FADF8D" points="117.187,230.168 79.557,161.696 117.187,125.001 "/>
<polygon fill="#FA8D29" points="117.187,230.168 94.334,161.696 117.187,125.001 "/>
<polygon fill="#E15829" points="117.187,161.696 94.334,161.696 117.187,125.001 "/>
<polygon fill="#FA8D29" points="94.334,161.696 79.557,161.696 117.187,125.001 "/>
<polygon fill="#FADF8D" points="235.271,125.001 166.804,162.626 130.104,125.001 "/>
<polygon fill="#FA8D29" points="235.271,125.001 166.804,147.866 130.104,125.001 "/>
<polygon fill="#E15829" points="166.804,125.001 166.804,147.866 130.104,125.001 "/>
<polygon fill="#FA8D29" points="166.804,147.866 166.804,162.626 130.104,125.001 "/>
<polygon fill="#FADF8D" points="129.934,7.389 167.568,75.872 129.934,112.568 "/>
<polygon fill="#FA8D29" points="129.934,7.389 152.805,75.872 129.934,112.568 "/>
<polygon fill="#E15829" points="129.934,75.872 152.805,75.872 129.934,112.568 "/>
<polygon fill="#FA8D29" points="152.805,75.872 167.568,75.872 129.934,112.568 "/>
<polygon fill="#FADF8D" points="11.562,112.459 80.037,74.834 116.719,112.459 "/>
<polygon fill="#FA8D29" points="11.562,112.459 80.037,89.593 116.719,112.459 "/>
<polygon fill="#E15829" points="80.037,112.459 80.037,89.593 116.719,112.459 "/>
<polygon fill="#FA8D29" points="80.037,89.593 80.037,74.834 116.719,112.459 "/>
</svg>
